<svg width="17" height="16" viewBox="0 0 17 16" fill="none" xmlns="http://www.w3.org/2000/svg">
<rect width="16" height="16" transform="translate(0.95752)" style="mix-blend-mode:multiply"/>
<path d="M14.9575 10.6667V5.33335C14.9573 5.09953 14.8956 4.86989 14.7785 4.66746C14.6615 4.46503 14.4933 4.29692 14.2909 4.18002L9.62419 1.51335C9.42149 1.39633 9.19157 1.33472 8.95752 1.33472C8.72347 1.33472 8.49355 1.39633 8.29085 1.51335L3.62419 4.18002C3.42169 4.29692 3.25351 4.46503 3.13649 4.66746C3.01948 4.86989 2.95776 5.09953 2.95752 5.33335V10.6667C2.95776 10.9005 3.01948 11.1301 3.13649 11.3326C3.25351 11.535 3.42169 11.7031 3.62419 11.82L8.29085 14.4867C8.49355 14.6037 8.72347 14.6653 8.95752 14.6653C9.19157 14.6653 9.42149 14.6037 9.62419 14.4867L14.2909 11.82C14.4933 11.7031 14.6615 11.535 14.7785 11.3326C14.8956 11.1301 14.9573 10.9005 14.9575 10.6667Z" stroke="#0F62FE" stroke-linecap="round" stroke-linejoin="round"/>
<path d="M3.1377 4.64001L8.9577 8.00668L14.7777 4.64001" stroke="#0F62FE" stroke-linecap="round" stroke-linejoin="round"/>
<path d="M8.95752 14.72V8" stroke="#0F62FE" stroke-linecap="round" stroke-linejoin="round"/>
</svg>
